# xmcd
#
# Track frame offsets:
#	150
#	16385
#	32225
#	51525
#	74772
#	100870
#	127197
#	139015
#	165827
#	181137
#	202022
#
# Disc length: 2937
#
# Revision: 3
# Processed by: cddbd v1.5.1PL0 Copyright (c) Steve Scherf et al.
# Submitted via: CDex 1.30Release
# Normalized: r2:TRMNUM
#
DISCID=a10b770b
DTITLE=Chris Chown - Stompin' Grounds
DYEAR=1900
DGENRE=Blues
TTITLE0=Baby's Got The Blues
TTITLE1=You Can Love Me
TTITLE2=Sufferin' Mind
TTITLE3=Walkin' Blues
TTITLE4=All Your Love
TTITLE5=Blues From The Other Side
TTITLE6=Don't You Lie To Me
TTITLE7=Rock Me Baby
TTITLE8=The Blues Is Alright
TTITLE9=What's What
TTITLE10=It Hurts Me Too
EXTD=ID3G:   0
EXTT0=
EXTT1=
EXTT2=
EXTT3=
EXTT4=
EXTT5=
EXTT6=
EXTT7=
EXTT8=
EXTT9=
EXTT10=
PLAYORDER=
